<svg width="20" height="20" viewBox="0 0 20 20" fill="none" xmlns="http://www.w3.org/2000/svg">
<g clip-path="url(#clip0_601_1210)">
<path fill-rule="evenodd" clip-rule="evenodd" d="M4.18173 10.0001C4.18173 9.36502 4.28946 8.75613 4.48173 8.18502L1.11627 5.66858C0.460366 6.97258 0.0908203 8.44191 0.0908203 10.0001C0.0908203 11.557 0.459911 13.0255 1.11491 14.3286L4.47855 11.8072C4.28809 11.2388 4.18173 10.6321 4.18173 10.0001Z" fill="#FCDF8A"/>
<path fill-rule="evenodd" clip-rule="evenodd" d="M10.0908 4.22226C11.4998 4.22226 12.7726 4.71115 13.7726 5.51115L16.6817 2.6667C14.9089 1.15559 12.6362 0.22226 10.0908 0.22226C6.13894 0.22226 2.74257 2.43515 1.11621 5.66848L4.48167 8.18493C5.25712 5.88004 7.46757 4.22226 10.0908 4.22226Z" fill="#FF857B"/>
<path fill-rule="evenodd" clip-rule="evenodd" d="M10.0908 15.7779C7.46757 15.7779 5.25712 14.1201 4.48167 11.8152L1.11621 14.3312C2.74257 17.565 6.13894 19.7779 10.0908 19.7779C12.5298 19.7779 14.8585 18.9299 16.6062 17.341L13.4117 14.9228C12.5103 15.4788 11.3753 15.7779 10.0908 15.7779Z" fill="#73E792"/>
<path fill-rule="evenodd" clip-rule="evenodd" d="M19.6363 9.99995C19.6363 9.42217 19.5454 8.79995 19.409 8.22217H10.0908V11.9999H15.4545C15.1863 13.2879 14.4563 14.2782 13.4117 14.9226L16.6063 17.3408C18.4422 15.6724 19.6363 13.1871 19.6363 9.99995Z" fill="#6EA3FC"/>
</g>
<defs>
<clipPath id="clip0_601_1210">
<rect width="20" height="20" fill="white"/>
</clipPath>
</defs>
</svg>
